<svg width="128" height="64" viewBox="0 0 128 64" fill="none" xmlns="http://www.w3.org/2000/svg">
<path d="M27.9467 25.28C28.48 26.0267 28.6933 26.88 28.6933 27.84C28.6933 28.6933 28.48 29.5467 27.9467 30.1867C27.6267 30.6133 27.2 30.9333 26.7733 31.1467C27.52 31.4667 28.2667 31.8933 28.6933 32.64C29.6533 34.24 29.5467 36.16 28.5867 37.6533C28.2667 38.1867 27.84 38.6133 27.4133 38.9333C26.88 39.36 26.24 39.68 25.4933 39.7867C24.7467 40 23.8933 40 23.1467 40H15.68V23.5733H23.5733C25.28 23.36 26.88 24 27.9467 25.28ZM19.0933 26.4533V30.08H23.1467C23.7867 30.08 24.32 29.9733 24.8533 29.6533C25.28 29.3333 25.6 28.8 25.4933 28.16C25.6 27.52 25.1733 26.88 24.64 26.6667C24 26.4533 23.36 26.4533 22.72 26.4533H19.0933ZM19.0933 32.7467V37.12H23.04C23.5733 37.12 24.2133 37.0133 24.7467 36.8C25.4933 36.3733 25.92 35.6267 25.8133 34.7733C25.92 34.0267 25.4933 33.28 24.7467 33.0667C24.2133 32.8533 23.68 32.7467 23.1467 32.7467H19.0933Z" fill="#96ACAF"/>
<path d="M36.6933 32.64C37.12 32.64 37.5466 32.5333 37.9733 32.32C38.4 32.2133 38.72 31.8933 38.72 31.4667C38.72 31.04 38.5067 30.6133 38.1867 30.4C37.6533 30.1867 37.2267 30.08 36.6933 30.08C36.0533 29.9733 35.52 30.1867 35.0933 30.6133C34.88 30.9333 34.6667 31.36 34.6667 31.68H31.5733C31.5733 30.72 31.8933 29.8667 32.4267 29.0133C33.4933 27.84 35.2 27.2 36.8 27.3067C38.08 27.3067 39.2533 27.52 40.4267 28.16C41.4933 28.6933 42.1333 29.8667 42.0267 31.1467V38.1867C42.0267 38.5067 42.0267 38.8267 42.24 39.04C42.3467 39.2533 42.56 39.36 42.6667 39.36V39.7867H39.1467C39.04 39.5733 38.9333 39.36 38.9333 39.04C38.8267 38.8267 38.8267 38.6133 38.8267 38.2933C38.4 38.72 37.8667 39.1467 37.3333 39.4667C36.5867 39.8933 35.7333 40.1067 34.9867 40.1067C34.0267 40.1067 32.96 39.7867 32.2133 39.1467C31.4667 38.5067 31.04 37.44 31.1467 36.48C31.1467 35.2 31.7867 33.92 32.96 33.28C33.8133 32.8533 34.7733 32.64 35.7333 32.5333L36.6933 32.64ZM38.72 34.0267C38.5067 34.1333 38.2933 34.24 38.08 34.3467C37.76 34.4533 37.5467 34.56 37.2267 34.56L36.5867 34.6667C36.0533 34.7733 35.6267 34.88 35.0933 35.0933C34.6667 35.3067 34.4533 35.84 34.3467 36.2667C34.24 36.8 34.4533 37.2267 34.7733 37.5467C35.0933 37.76 35.52 37.8667 35.84 37.8667C36.48 37.8667 37.2267 37.6533 37.76 37.2267C38.4 36.6933 38.72 35.84 38.72 34.9867V34.0267Z" fill="#96ACAF"/>
<path d="M51.9466 32.2133C51.84 31.7866 51.7333 31.36 51.52 31.04C51.0933 30.5066 50.4533 30.2933 49.8133 30.2933C48.8533 30.2933 47.8933 30.9333 47.5733 31.8933C47.36 32.64 47.2533 33.3866 47.2533 34.1333C47.2533 34.88 47.36 35.6266 47.5733 36.2666C47.8933 37.2266 48.7466 37.8667 49.7066 37.76C50.3466 37.8667 50.88 37.6533 51.3066 37.12C51.6266 36.6933 51.84 36.16 51.9466 35.52H55.2533C55.1466 36.48 54.8266 37.44 54.1866 38.2933C53.12 39.68 51.52 40.5333 49.7066 40.4267C48.1066 40.5333 46.5066 39.8933 45.3333 38.72C44.3733 37.44 43.84 35.84 43.9466 34.24C43.84 32.5333 44.3733 30.8266 45.44 29.44C46.5066 28.2666 48 27.6266 49.6 27.7333C50.88 27.6266 52.16 28.0533 53.3333 28.6933C54.4 29.5466 55.04 30.9333 55.04 32.32L51.9466 32.2133Z" fill="#96ACAF"/>
<path d="M57.3867 23.5733H60.48V32.5333L64.5333 27.84H68.48L64.1067 32.4266L68.6933 40H64.8533L61.8667 34.7733L60.48 36.16V40H57.3867V23.5733Z" fill="#96ACAF"/>
<path d="M70.2934 40V23.5733H73.7067V29.76H80.1067V23.5733H83.6267V40H80.1067V32.64H73.7067V40H70.2934Z" fill="#96ACAF"/>
<path d="M89.7066 27.84V35.2C89.7066 35.7333 89.7066 36.2666 89.92 36.8C90.24 37.44 90.88 37.76 91.6266 37.76C92.5866 37.8666 93.44 37.3333 93.8666 36.3733C94.08 35.7333 94.1866 35.0933 94.1866 34.4533V27.84H97.3866V40H94.2933V38.2933C94.1866 38.4 94.08 38.5066 94.08 38.6133C93.9733 38.8266 93.8666 38.9333 93.6533 39.04C93.2266 39.4666 92.6933 39.7866 92.16 40C91.6266 40.2133 91.0933 40.2133 90.56 40.2133C89.0666 40.4266 87.68 39.5733 86.9333 38.2933C86.5066 37.3333 86.4 36.2666 86.4 35.2V27.84H89.7066Z" fill="#96ACAF"/>
<path d="M110.933 29.2266C111.893 30.5066 112.32 32.1066 112.32 33.7066C112.32 35.4133 111.893 37.0133 110.933 38.4C110.08 39.68 108.693 40.32 107.2 40.32C106.347 40.32 105.493 40.1066 104.853 39.68C104.427 39.36 104 38.9333 103.68 38.5066V40H100.587V23.5733H103.787V29.44C104.107 28.9066 104.64 28.48 105.173 28.16C105.813 27.7333 106.667 27.52 107.413 27.52C108.693 27.52 109.973 28.16 110.933 29.2266ZM108.267 36.6933C108.8 35.9466 109.013 34.9866 109.013 34.0266C109.013 33.28 108.907 32.5333 108.693 31.8933C108.373 30.8266 107.413 30.1866 106.347 30.2933C105.28 30.1866 104.32 30.8266 104 31.8933C103.787 32.5333 103.573 33.28 103.68 34.0266C103.68 34.9866 103.893 35.84 104.427 36.5866C104.853 37.2266 105.707 37.6533 106.56 37.6533C107.093 37.76 107.84 37.3333 108.267 36.6933Z" fill="#96ACAF"/>
</svg>
