<svg width="64" height="64" viewBox="0 0 64 64" fill="none" xmlns="http://www.w3.org/2000/svg">
<path opacity="0.2" d="M44 28L18.585 53.415C18.21 53.7898 17.7015 54.0003 17.1713 54.0003C16.6411 54.0003 16.1326 53.7898 15.7575 53.415L10.585 48.25C10.2102 47.875 9.99971 47.3665 9.99971 46.8363C9.99971 46.306 10.2102 45.7975 10.585 45.4225L36 20L44 28Z" fill="#0FF1F6"/>
<path d="M62 38C62 38.5304 61.7892 39.0391 61.4142 39.4142C61.0391 39.7893 60.5304 40 60 40H56V44C56 44.5304 55.7892 45.0391 55.4142 45.4142C55.0391 45.7893 54.5304 46 53.9999 46C53.4695 46 52.9608 45.7893 52.5857 45.4142C52.2107 45.0391 51.9999 44.5304 51.9999 44V40H47.9999C47.4695 40 46.9608 39.7893 46.5857 39.4142C46.2107 39.0391 45.9999 38.5304 45.9999 38C45.9999 37.4696 46.2107 36.9609 46.5857 36.5858C46.9608 36.2107 47.4695 36 47.9999 36H51.9999V32C51.9999 31.4696 52.2107 30.9609 52.5857 30.5858C52.9608 30.2107 53.4695 30 53.9999 30C54.5304 30 55.0391 30.2107 55.4142 30.5858C55.7892 30.9609 56 31.4696 56 32V36H60C60.5304 36 61.0391 36.2107 61.4142 36.5858C61.7892 36.9609 62 37.4696 62 38ZM13.9999 18H17.9999V22C17.9999 22.5304 18.2107 23.0391 18.5857 23.4142C18.9608 23.7893 19.4695 24 19.9999 24C20.5304 24 21.0391 23.7893 21.4142 23.4142C21.7892 23.0391 21.9999 22.5304 21.9999 22V18H25.9999C26.5304 18 27.0391 17.7893 27.4142 17.4142C27.7892 17.0391 27.9999 16.5304 27.9999 16C27.9999 15.4696 27.7892 14.9609 27.4142 14.5858C27.0391 14.2107 26.5304 14 25.9999 14H21.9999V10C21.9999 9.46957 21.7892 8.96086 21.4142 8.58579C21.0391 8.21071 20.5304 8 19.9999 8C19.4695 8 18.9608 8.21071 18.5857 8.58579C18.2107 8.96086 17.9999 9.46957 17.9999 10V14H13.9999C13.4695 14 12.9608 14.2107 12.5857 14.5858C12.2107 14.9609 11.9999 15.4696 11.9999 16C11.9999 16.5304 12.2107 17.0391 12.5857 17.4142C12.9608 17.7893 13.4695 18 13.9999 18ZM45.9999 48H43.9999V46C43.9999 45.4696 43.7892 44.9609 43.4142 44.5858C43.0391 44.2107 42.5304 44 41.9999 44C41.4695 44 40.9608 44.2107 40.5857 44.5858C40.2107 44.9609 39.9999 45.4696 39.9999 46V48H37.9999C37.4695 48 36.9608 48.2107 36.5857 48.5858C36.2107 48.9609 35.9999 49.4696 35.9999 50C35.9999 50.5304 36.2107 51.0391 36.5857 51.4142C36.9608 51.7893 37.4695 52 37.9999 52H39.9999V54C39.9999 54.5304 40.2107 55.0391 40.5857 55.4142C40.9608 55.7893 41.4695 56 41.9999 56C42.5304 56 43.0391 55.7893 43.4142 55.4142C43.7892 55.0391 43.9999 54.5304 43.9999 54V52H45.9999C46.5304 52 47.0391 51.7893 47.4142 51.4142C47.7892 51.0391 47.9999 50.5304 47.9999 50C47.9999 49.4696 47.7892 48.9609 47.4142 48.5858C47.0391 48.2107 46.5304 48 45.9999 48ZM54.8274 20L19.9999 54.8275C19.2499 55.5771 18.2329 55.9981 17.1724 55.9981C16.112 55.9981 15.095 55.5771 14.3449 54.8275L9.16994 49.6575C8.79841 49.2861 8.50369 48.8451 8.30262 48.3597C8.10154 47.8743 7.99805 47.3541 7.99805 46.8288C7.99805 46.3034 8.10154 45.7832 8.30262 45.2978C8.50369 44.8124 8.79841 44.3714 9.16994 44L43.9999 9.1725C44.3714 8.80097 44.8124 8.50625 45.2978 8.30517C45.7831 8.1041 46.3033 8.0006 46.8287 8.0006C47.3541 8.0006 47.8743 8.1041 48.3596 8.30517C48.845 8.50625 49.286 8.80097 49.6574 9.1725L54.8274 14.3425C55.199 14.7139 55.4937 15.1549 55.6948 15.6403C55.8959 16.1257 55.9993 16.6459 55.9993 17.1712C55.9993 17.6966 55.8959 18.2168 55.6948 18.7022C55.4937 19.1876 55.199 19.6286 54.8274 20ZM41.1699 28L35.9999 22.8275L11.9999 46.8275L17.1699 52L41.1699 28ZM51.9999 17.1725L46.8274 12L38.8274 20L43.9999 25.1725L51.9999 17.1725Z" fill="#0FF1F6"/>
</svg>
