<svg width="128" height="64" viewBox="0 0 128 64" fill="none" xmlns="http://www.w3.org/2000/svg">
<path d="M5.35892 42.3968C5.36959 42.368 7.26079 37.6693 9.56586 31.9434L13.7557 21.5541H19.7963L29.0592 42.416C29.0603 42.4288 27.8005 42.4352 26.2581 42.4309L23.4549 42.4234L21.7568 38.3168H17.0827L12.3947 38.3541L10.8523 42.4373H5.34186L5.35892 42.3968ZM20.1877 34.6101C20.1451 34.4501 16.8597 26.5856 16.8416 26.6037C16.8235 26.6218 13.7941 34.6336 13.7941 34.6624C13.7941 34.6677 15.2363 34.673 16.9995 34.673H20.2048L20.1877 34.6101ZM31.4912 32V21.5509H36.0117L39.3611 25.4197L42.7275 29.2885C42.7381 29.2885 44.2507 27.5477 46.0928 25.4197L49.4421 21.5509H53.9733V42.4501H48.7861V35.9413L48.7605 29.4421C48.7467 29.4474 47.4773 30.9162 45.9403 32.7061L43.1456 35.9594H42.3349L39.536 32.6997L36.6933 29.44C36.6827 29.4389 36.672 32.3669 36.672 35.9466V42.4533H31.4848L31.4912 32ZM57.9403 32.0074L57.9477 21.5541L62.4277 21.5456C67.1467 21.5349 68.1237 21.553 69.0411 21.6597C72.2144 22.0224 74.7947 23.3237 76.4725 25.409C77.6821 26.9024 78.3605 28.5941 78.6219 30.7296C78.6859 31.2576 78.6965 32.6848 78.6379 33.249C78.4811 34.7936 78.0885 36.1344 77.4517 37.2949C75.8763 40.1696 72.8971 41.8816 68.7307 42.3328C67.8379 42.4394 67.2512 42.4373 62.6016 42.4373H57.9083L57.9157 31.984L57.9403 32.0074ZM67.3312 38.5941C68.9013 38.4725 70.1813 38.0074 71.1712 37.2C71.5196 36.8992 71.836 36.5632 72.1152 36.1973C72.7339 35.344 73.1264 34.2794 73.2949 33.024C73.3451 32.6453 73.3451 31.3173 73.2939 30.9493C73.1125 29.6416 72.7349 28.624 72.1259 27.7973C71.8254 27.4138 71.4846 27.0637 71.1093 26.753C70.1781 26.0224 68.9685 25.5829 67.4827 25.4357C67.3067 25.4186 66.3179 25.4058 65.1627 25.4058H63.1499V38.6133H65.0411L67.3312 38.5813V38.5941Z" fill="#96ACAF"/>
<path d="M83.52 43.8752V36.1866L94.4821 25.216V40.592H109.858L98.8864 51.5626H83.52V43.8752ZM117.316 45.92L112 40.6144V23.1211H94.5066L83.8229 12.4373H122.636L122.64 31.6512L122.667 50.9653C122.672 51.0259 122.667 51.0871 122.65 51.1456C122.628 51.2043 121.242 49.8474 117.316 45.92Z" fill="#96ACAF"/>
</svg>
