<svg width="128" height="64" viewBox="0 0 128 64" fill="none" xmlns="http://www.w3.org/2000/svg">
<path d="M26.3492 35.5848C25.1385 38.4781 22.0401 40.3187 18.9416 40.3187C14.3627 40.3187 10.6681 36.4897 10.6681 31.9436C10.6681 27.4293 14.4047 23.6763 18.8554 23.6763C22.0524 23.6763 25.2165 25.5384 26.4477 28.5394H23.065C22.5504 27.9269 21.9096 27.4326 21.1865 27.0903C20.4634 26.7481 19.6749 26.5659 18.8749 26.5562C15.9591 26.5562 13.626 29.077 13.626 32.0513C13.626 34.8728 16.0453 37.4377 18.8965 37.4377C20.4734 37.4377 21.8338 36.7267 22.9142 35.5848H26.3492ZM39.7177 27.9885H37.0912V29.6813C36.644 29.0315 36.0433 28.5022 35.3424 28.1403C34.6415 27.7784 33.8621 27.5951 33.0734 27.6068C31.3241 27.6068 29.8334 28.2716 28.6207 29.6813C27.5167 30.9361 27.0817 32.3109 27.0817 33.9668C27.0817 35.6228 27.6234 37.1699 28.5755 38.317C29.6149 39.5543 31.1282 40.3279 32.9852 40.3279C34.4975 40.3279 36.1821 39.5553 37.0891 38.317V39.9442H39.7156L39.7177 27.9885ZM37.006 33.9443C37.006 35.9962 35.5696 37.5352 33.5177 37.5147C31.5735 37.5352 29.975 36.0311 29.975 34.0756C29.975 31.9898 31.4442 30.3985 33.5608 30.42C35.5922 30.3995 37.0163 31.9467 37.0163 33.9453M41.865 39.9432H44.5069V38.316C45.458 39.7267 46.9282 40.3269 48.5698 40.3269C50.2319 40.3269 51.8971 39.6087 52.9589 38.316C53.9131 37.1905 54.5184 35.4063 54.4979 33.9658C54.4979 30.6129 51.9843 27.6109 48.4857 27.6109C47.1252 27.6109 45.5924 28.0859 44.7491 29.2525V23.9707H41.8763L41.865 39.9432ZM48.1799 30.42C50.2319 30.42 51.6149 32.0103 51.6149 33.9884C51.6149 35.987 50.2093 37.5136 48.1799 37.5136C46.0192 37.5136 44.5716 35.9029 44.5716 33.817C44.5716 31.84 46.2572 30.4313 48.1799 30.4313M56.121 23.9707H59.0019V39.9452H56.121V23.9707ZM73.1112 35.2216C73.1758 34.7681 73.262 34.3146 73.262 33.8612C73.262 30.5472 70.5534 27.6027 67.1339 27.6027C63.5409 27.6027 60.7779 30.5165 60.7779 34.0253C60.7779 37.5136 63.6045 40.3115 67.0897 40.3115C69.6239 40.3115 72.1006 38.6053 72.8311 36.4661H69.666C69.1017 37.0817 68.0634 37.4921 66.981 37.4921C65.5303 37.4921 64.2519 36.5841 63.821 35.2021L73.1112 35.2216ZM63.7779 32.6731C64.2108 31.3126 65.6831 30.42 67.1123 30.42C68.5846 30.42 69.905 31.2695 70.3811 32.6731H63.7779ZM74.7538 23.9707H76.3594V38.4883H82.9626V39.9432H74.7548L74.7538 23.9707ZM94.746 28.1341H93.2132V30.3913C92.3278 28.7046 90.4513 27.8797 88.5963 27.8797C86.9568 27.8797 85.2957 28.4676 83.5023 30.3913C83.0683 30.7812 82.266 32.4022 82.266 33.9822C82.266 35.7777 83.0047 37.2695 83.4377 37.7455C84.951 39.465 86.8706 40.2079 88.6394 40.2079C90.4861 40.2079 92.3073 39.3902 93.2152 37.7455V39.9565H94.746V28.1341ZM88.5942 29.4084C91.2269 29.4084 93.2111 31.5065 93.2111 34.1238C93.2111 36.5903 91.0976 38.7099 88.6353 38.7099C86.1114 38.7099 83.8665 36.699 83.8665 34.093C83.8665 31.4768 86.0026 29.3992 88.5922 29.3992M96.5928 39.9473H98.1112V37.9312C99.0407 39.4568 101.115 40.2089 102.823 40.2089C104.551 40.2089 106.02 39.7759 107.663 37.9312C108.315 37.2171 109.074 35.7028 109.074 33.9945C109.074 30.4898 106.107 27.8746 102.672 27.8746C100.922 27.8746 98.9782 28.6954 98.1984 30.339V23.9707H96.5928V39.9473ZM102.714 29.4074C105.351 29.4074 107.467 31.3547 107.467 34.0376C107.467 36.6026 105.393 38.7099 102.821 38.7099C100.228 38.7099 98.0886 36.7852 98.0886 34.1464C98.0886 32.8475 98.4128 31.7661 99.3424 30.8366C100.228 29.9276 101.438 29.4084 102.713 29.4084M111.538 36.4538C111.528 36.7404 111.576 37.0262 111.678 37.2941C111.78 37.562 111.936 37.8066 112.134 38.0135C112.333 38.2205 112.571 38.3854 112.834 38.4987C113.098 38.612 113.381 38.6712 113.668 38.673C114.797 38.673 115.72 37.8758 115.72 36.7236C115.72 35.3016 114.604 34.7743 113.444 34.4603C112.692 34.2243 111.897 33.9863 111.312 33.4261C110.684 32.866 110.358 32.0257 110.358 31.1854C110.358 29.2668 111.92 27.8838 113.767 27.8838C115.527 27.8838 117.022 29.353 117.022 31.0766H115.43C115.43 30.0425 114.636 29.4176 113.603 29.4176C113.169 29.4176 112.752 29.5902 112.444 29.8974C112.136 30.2045 111.963 30.6213 111.962 31.0561C111.962 32.3489 112.993 32.6936 114.014 33.0055C115.774 33.5657 117.315 34.3187 117.315 36.4528C117.315 38.672 115.688 40.2058 113.499 40.2058C111.498 40.2058 109.808 38.4565 109.915 36.4528H111.519" fill="#96ACAF"/>
</svg>
