<svg width="128" height="64" viewBox="0 0 128 64" fill="none" xmlns="http://www.w3.org/2000/svg">
<path d="M41.8133 21.76C40.7466 20.6933 39.5733 20.9067 38.72 21.3333C39.1466 20.48 39.36 19.3067 38.2933 18.24C36.8 16.96 35.6266 17.8133 34.7733 18.24C31.7866 19.6267 30.1866 19.7333 28.2666 19.7333C26.3466 19.7333 24.7466 19.6267 21.76 18.24C20.9066 17.8133 19.6266 16.96 18.24 18.24C17.1733 19.3067 17.3866 20.5867 17.8133 21.3333C16.96 20.9067 15.7866 20.6933 14.72 21.76C13.44 23.2533 14.2933 24.5333 14.72 25.3867C16.1066 28.3733 16.2133 30.08 16.2133 32C16.2133 33.92 16.1066 35.6267 14.72 38.6133C14.2933 39.4667 13.44 40.7467 14.72 42.24C15.7866 43.3067 16.96 43.0933 17.8133 42.6667C17.3866 43.52 17.1733 44.6933 18.24 45.76C19.7333 47.04 20.9066 46.1867 21.76 45.76C24.7466 44.3733 26.3466 44.2667 28.2666 44.2667C30.1866 44.2667 31.7866 44.3733 34.7733 45.76C35.6266 46.1867 36.9066 47.04 38.2933 45.76C39.36 44.6933 39.1466 43.52 38.72 42.6667C39.5733 43.0933 40.7466 43.3067 41.8133 42.24C43.0933 40.7467 42.24 39.4667 41.8133 38.6133C40.4266 35.6267 40.32 33.92 40.32 32C40.32 30.08 40.4266 28.3733 41.8133 25.3867C42.24 24.5333 43.0933 23.2533 41.8133 21.76ZM31.36 34.0267L37.2266 40.96L30.1866 35.2C30.1866 35.2 29.2266 34.24 28.16 34.24C27.0933 34.24 26.1333 35.2 26.1333 35.2L19.2 41.0667L24.96 34.1333C24.96 34.1333 25.92 33.1733 25.92 32.1067C25.92 31.04 24.96 30.08 24.96 30.08L19.2 23.04L26.1333 28.9067C26.1333 28.9067 27.0933 29.8667 28.16 29.8667C29.2266 29.8667 30.1866 28.9067 30.1866 28.9067L37.12 23.04L31.2533 30.08C31.2533 30.08 30.2933 31.04 30.2933 32.1067C30.4 33.0667 31.36 34.0267 31.36 34.0267Z" fill="#96ACAF"/>
<path d="M88.2133 31.1466C88.5333 30.9333 93.5466 29.0133 93.12 24.5333C92.5866 18.7733 86.5066 19.2 84.3733 19.2H73.28V19.4133C74.4533 19.52 74.9866 20.16 74.9866 22.2933L74.88 41.92C74.88 43.84 74.0266 44.3733 72.96 44.5866V44.9066H87.68C89.6 44.9066 94.4 44.2666 94.6133 38.6133C94.8266 37.2266 94.4 32.64 88.2133 31.1466ZM86.1866 43.7333C84.8 44.0533 82.7733 43.9466 81.1733 43.9466C79.68 43.84 79.68 43.2 79.68 42.56C79.68 42.56 79.68 39.8933 79.7866 36.48C79.8933 30.1866 80.1066 21.2266 80.1066 21.12C80.1066 20.2666 80.32 20.16 81.0666 20.16C81.6 20.16 81.8133 20.16 82.88 20.16C84.2666 20.16 88 20.2666 88.2133 25.3866C88.4266 30.5066 83.0933 31.1466 81.7066 31.2533C81.6 31.2533 81.6 31.4666 81.7066 31.4666C85.8666 31.68 89.92 33.1733 89.7066 38.72C89.7066 42.4533 87.5733 43.4133 86.1866 43.7333Z" fill="#96ACAF"/>
<path d="M106.453 29.44C102.827 28.5867 100.373 27.84 100.373 24.7467C100.373 22.4 102.187 19.84 106.453 20.0533C109.973 20.2667 111.787 21.9733 112.213 23.8933H112.533L112.427 19.3067H112.213C112.107 19.4133 112 19.52 111.787 19.6267C111.253 19.84 110.613 19.6267 110.613 19.6267C107.84 18.88 104.427 18.9867 104.427 18.9867C100.587 19.0933 96.32 20.3733 95.68 25.4933C95.2533 29.12 98.0267 31.1467 98.0267 31.1467C100.373 33.1733 105.173 33.8133 106.987 34.56C109.227 35.6267 109.333 37.8667 109.227 38.9333C108.907 42.6667 106.133 44.0533 102.827 44.0533C99.4133 44.0533 97.92 42.56 97.28 42.0267C96.32 41.28 96.32 40.32 96.2133 39.7867H95.8933V44.6933H96.2133C96.4267 44.16 96.64 43.9467 97.28 44.16C100.8 45.12 103.36 45.2267 103.36 45.2267C109.44 45.44 113.813 42.9867 114.133 37.9733C114.56 30.72 108.16 29.8667 106.453 29.44Z" fill="#96ACAF"/>
<path d="M60.48 19.2C59.3067 19.2 48.5333 19.2 48.5333 19.2V19.52C49.3867 19.6266 50.1333 20.2666 50.1333 21.12C50.3467 24 50.4533 41.6 50.0267 43.52C49.92 44.0533 49.0667 44.48 48.32 44.5866V44.9066H61.6533C66.88 44.9066 72.64 40 72.64 32C72.8533 22.8266 65.8133 19.0933 60.48 19.2ZM62.9333 43.2C61.0133 43.84 58.9867 44.0533 56.5333 43.84C55.1467 43.7333 55.1467 42.88 55.1467 42.56C55.04 40.1066 55.04 23.36 55.1467 21.2266C55.2533 20.0533 55.4667 20.16 56.5333 20.16C57.4933 20.16 58.6667 20.2666 58.6667 20.2666C64.96 20.6933 67.3067 25.6 67.7333 31.8933C68.2667 38.1866 65.28 42.3466 62.9333 43.2Z" fill="#96ACAF"/>
</svg>
