<svg width="128" height="64" viewBox="0 0 128 64" fill="none" xmlns="http://www.w3.org/2000/svg">
<path d="M13.6534 39.4666C16 39.4666 18.3467 38.4 19.7334 36.5866L21.6534 37.9733C19.9467 40.1066 17.4934 41.3866 14.8267 41.7066C12.16 42.0266 9.38669 41.28 7.25336 39.5733L8.74669 37.76C10.24 38.8266 11.84 39.4666 13.6534 39.4666ZM13.6534 24.5333C11.9467 24.5333 10.24 25.0666 8.85336 26.1333L7.36002 24.32C9.17336 22.9333 11.4134 22.1866 13.6534 22.1866C16.7467 22.1866 19.7334 23.5733 21.6534 26.0266L19.7334 27.4133C18.24 25.6 16 24.5333 13.6534 24.5333ZM20.48 28.48L19.84 30.72H11.7334L12.3734 28.48H20.48ZM10.56 35.52L11.2 33.28H19.4134L18.7734 35.52H10.56Z" fill="#96ACAF"/>
<path d="M27.0934 39.36C24.32 39.36 21.76 37.8667 20.3734 35.4133H28.3734L29.0134 33.1733H19.6267C19.4134 32.32 19.4134 31.4667 19.6267 30.6133H29.5467L30.1867 28.3733H20.3734C21.6534 25.92 24.32 24.4267 27.0934 24.4267C28.8 24.4267 30.5067 24.96 31.8934 26.0267L33.3867 24.2133C29.3334 21.0133 23.36 21.44 19.7334 25.1733C16.1067 28.9067 16.1067 34.7733 19.7334 38.5067C23.36 42.24 29.2267 42.6667 33.3867 39.4667L31.8934 37.6533C30.5067 38.8267 28.8 39.36 27.0934 39.36Z" fill="#96ACAF"/>
<path d="M39.8934 38.08V25.4933H48.4267V26.9867H41.7067V30.9333H48.4267V32.4267H41.7067V36.3733H48.4267V37.8667H39.8934V38.08ZM82.3467 38.08V25.4933H90.88V26.9867H84.16V30.9333H90.88V32.4267H84.16V36.3733H90.88V37.8667H82.3467V38.08ZM76.16 34.7733L78.72 28.48H80.64C80.1067 29.76 78.1867 34.6667 77.44 36.3733C76.16 39.36 74.6667 40.96 73.0667 41.0667V39.4667C74.0267 39.1467 75.0934 37.8667 75.0934 36.6933L71.8934 28.48H73.92L76.16 34.7733ZM99.84 34.4533C99.84 34.4533 99.84 30.4 99.84 28.48H101.653V38.08H99.84V37.0133L99.52 37.3333C99.4134 37.5467 98.56 38.2934 96.8534 38.2934C94.08 38.2934 92.6934 36.9067 92.6934 34.0267V28.5867H94.5067V34.4533C94.5067 35.9467 95.4667 36.8 97.1734 36.8C98.4534 36.8 99.84 35.7333 99.84 34.4533ZM106.56 29.3333C107.093 28.48 107.947 28.3733 109.013 28.3733C109.44 28.3733 109.867 28.3733 110.187 28.48L109.653 30.1867C109.227 30.08 108.8 30.08 108.373 29.9733C106.88 29.9733 106.027 31.04 106.027 32.8533V38.2934H104.213V28.6933H106.027V30.08L106.56 29.3333ZM58.3467 29.76V28.48H60.16V38.08H58.3467V36.6933C58.3467 36.6933 57.7067 38.2934 54.9334 38.2934C52.16 38.2934 50.0267 36.16 50.0267 33.28C50.0267 30.4 52.16 28.2667 54.9334 28.2667C56.32 28.2667 57.4934 28.8 58.3467 29.76ZM55.1467 36.8C57.0667 36.8 58.4534 35.3067 58.4534 33.3867C58.4534 31.36 57.0667 29.9733 55.1467 29.9733C53.2267 29.9733 51.84 31.4667 51.84 33.3867C51.84 34.24 52.16 35.2 52.6934 35.84C53.44 36.3733 54.2934 36.6933 55.1467 36.8ZM67.2 32.4267C69.44 32.7467 70.5067 33.7067 70.5067 35.3067C70.5067 37.12 68.8 38.2934 66.0267 38.2934C64.64 38.2934 63.1467 37.9733 61.9734 37.2267L62.8267 35.9467C63.7867 36.5867 64.96 36.9067 66.1334 36.9067C67.7334 36.9067 68.6934 36.3733 68.6934 35.4133C68.6934 34.56 67.6267 34.3467 66.6667 34.1333L65.6 34.0267C63.36 33.7067 62.2934 32.7467 62.2934 31.36C62.2934 29.5467 63.8934 28.3733 66.3467 28.3733C67.7334 28.2667 69.0134 28.5867 70.1867 29.2267L69.44 30.6133C68.48 30.1867 67.4134 29.8667 66.3467 29.8667C65.0667 29.8667 64.2134 30.4 64.2134 31.2533C64.2134 32.2133 65.4934 32.32 66.1334 32.4267H67.2ZM115.627 28.2667C118.4 28.2667 120.747 30.5067 120.747 33.28C120.747 36.0533 118.507 38.2934 115.627 38.2934C112.853 38.2934 110.507 36.0533 110.507 33.28C110.507 30.5067 112.747 28.2667 115.627 28.2667ZM115.627 36.8C117.547 36.8 119.147 35.2 119.147 33.3867C119.147 31.4667 117.547 29.9733 115.627 29.9733C113.707 29.9733 112.107 31.5733 112.107 33.3867C112.107 35.2 113.707 36.8 115.627 36.8Z" fill="#96ACAF"/>
</svg>
