<svg width="64" height="64" viewBox="0 0 64 64" fill="none" xmlns="http://www.w3.org/2000/svg">
<path opacity="0.2" d="M32 6L40 14H24L32 6ZM32 58L40 50H24L32 58ZM50 24V40L58 32L50 24ZM6 32L14 40V24L6 32Z" fill="#0FF1F6"/>
<path d="M24 16H30V24C30 24.5304 30.2107 25.0391 30.5858 25.4142C30.9608 25.7893 31.4696 26 32 26C32.5304 26 33.0391 25.7893 33.4142 25.4142C33.7893 25.0391 34 24.5304 34 24V16H40C40.3958 16.0003 40.7828 15.8832 41.1119 15.6634C41.4411 15.4437 41.6977 15.1312 41.8492 14.7656C42.0007 14.3999 42.0403 13.9975 41.963 13.6094C41.8857 13.2212 41.695 12.8647 41.415 12.585L33.415 4.58499C33.2292 4.39903 33.0087 4.25152 32.7659 4.15087C32.5231 4.05022 32.2628 3.99841 32 3.99841C31.7372 3.99841 31.4769 4.05022 31.2341 4.15087C30.9913 4.25152 30.7707 4.39903 30.585 4.58499L22.585 12.585C22.305 12.8647 22.1142 13.2212 22.0369 13.6094C21.9596 13.9975 21.9992 14.3999 22.1507 14.7656C22.3022 15.1312 22.5588 15.4437 22.888 15.6634C23.2172 15.8832 23.6042 16.0003 24 16ZM32 8.82749L35.1725 12H28.8275L32 8.82749ZM40 48H34V40C34 39.4696 33.7893 38.9608 33.4142 38.5858C33.0391 38.2107 32.5304 38 32 38C31.4696 38 30.9608 38.2107 30.5858 38.5858C30.2107 38.9608 30 39.4696 30 40V48H24C23.6042 47.9997 23.2172 48.1168 22.888 48.3365C22.5588 48.5563 22.3022 48.8688 22.1507 49.2344C21.9992 49.6001 21.9596 50.0024 22.0369 50.3906C22.1142 50.7788 22.305 51.1353 22.585 51.415L30.585 59.415C30.7707 59.6009 30.9913 59.7485 31.2341 59.8491C31.4769 59.9498 31.7372 60.0016 32 60.0016C32.2628 60.0016 32.5231 59.9498 32.7659 59.8491C33.0087 59.7485 33.2292 59.6009 33.415 59.415L41.415 51.415C41.695 51.1353 41.8857 50.7788 41.963 50.3906C42.0403 50.0024 42.0007 49.6001 41.8492 49.2344C41.6977 48.8688 41.4411 48.5563 41.1119 48.3365C40.7828 48.1168 40.3958 47.9997 40 48ZM32 55.1725L28.8275 52H35.1725L32 55.1725ZM59.415 30.585L51.415 22.585C51.1353 22.305 50.7788 22.1142 50.3906 22.0369C50.0024 21.9596 49.6001 21.9992 49.2344 22.1507C48.8688 22.3022 48.5563 22.5588 48.3365 22.888C48.1168 23.2172 47.9997 23.6042 48 24V30H40C39.4696 30 38.9608 30.2107 38.5858 30.5858C38.2107 30.9608 38 31.4696 38 32C38 32.5304 38.2107 33.0391 38.5858 33.4142C38.9608 33.7893 39.4696 34 40 34H48V40C47.9997 40.3958 48.1168 40.7828 48.3365 41.1119C48.5563 41.4411 48.8688 41.6977 49.2344 41.8492C49.6001 42.0007 50.0024 42.0403 50.3906 41.963C50.7788 41.8857 51.1353 41.695 51.415 41.415L59.415 33.415C59.6009 33.2292 59.7485 33.0087 59.8491 32.7659C59.9498 32.5231 60.0016 32.2628 60.0016 32C60.0016 31.7372 59.9498 31.4769 59.8491 31.2341C59.7485 30.9913 59.6009 30.7707 59.415 30.585ZM52 35.1725V28.8275L55.1725 32L52 35.1725ZM24 34C24.5304 34 25.0391 33.7893 25.4142 33.4142C25.7893 33.0391 26 32.5304 26 32C26 31.4696 25.7893 30.9608 25.4142 30.5858C25.0391 30.2107 24.5304 30 24 30H16V24C16.0003 23.6042 15.8832 23.2172 15.6634 22.888C15.4437 22.5588 15.1312 22.3022 14.7656 22.1507C14.3999 21.9992 13.9975 21.9596 13.6094 22.0369C13.2212 22.1142 12.8647 22.305 12.585 22.585L4.58499 30.585C4.39903 30.7707 4.25152 30.9913 4.15087 31.2341C4.05022 31.4769 3.99841 31.7372 3.99841 32C3.99841 32.2628 4.05022 32.5231 4.15087 32.7659C4.25152 33.0087 4.39903 33.2292 4.58499 33.415L12.585 41.415C12.8647 41.695 13.2212 41.8857 13.6094 41.963C13.9975 42.0403 14.3999 42.0007 14.7656 41.8492C15.1312 41.6977 15.4437 41.4411 15.6634 41.1119C15.8832 40.7828 16.0003 40.3958 16 40V34H24ZM12 35.1725L8.82749 32L12 28.8275V35.1725Z" fill="#0FF1F6"/>
</svg>
