<svg width="73" height="17" viewBox="0 0 73 17" fill="none" xmlns="http://www.w3.org/2000/svg">
<path d="M50.8789 0.739696C50.3345 1.07188 50.0995 1.57631 50.0995 2.43753C50.0995 3.60634 50.718 4.30762 51.7448 4.30762C52.8087 4.30762 53.4397 3.60634 53.4397 2.40062C53.4397 1.5394 53.1551 0.973456 52.5861 0.67818C52.0789 0.419813 51.3613 0.444419 50.8789 0.739696Z" fill="#96ACAF"/>
<path d="M24.1204 0.961229C23.9472 1.07196 21.7204 3.28653 19.172 5.8702L14.5328 10.57L14.471 6.73142C14.4091 3.1881 14.3968 2.86822 14.1617 2.53604C13.7658 1.93318 12.7143 1.66251 12.0834 1.98239C11.9349 2.05621 9.90609 4.03702 7.58034 6.38693L3.34945 10.6438V6.69451C3.33708 2.88053 3.32471 2.73289 3.07729 2.413C2.21132 1.31802 0.491749 1.6256 0.120618 2.94204C-0.0402048 3.5449 -0.0402048 14.6793 0.120618 15.2821C0.256699 15.7743 0.825766 16.3156 1.30824 16.4386C1.46906 16.4755 1.81545 16.4755 2.07524 16.4386C2.48348 16.3648 3.04018 15.8358 6.8257 12.0218L11.1184 7.69107L11.1308 11.5051C11.1308 15.0115 11.1556 15.3436 11.3659 15.7004C11.7989 16.414 12.8256 16.6847 13.5679 16.2664C13.7782 16.1557 16.6112 13.3628 19.8524 10.0533L25.7657 4.06163H26.6812C28.1038 4.06163 28.6976 3.5695 28.6976 2.4007C28.6976 1.73633 28.4379 1.2319 27.9554 0.936623C27.4358 0.641347 24.5657 0.65365 24.1204 0.961229Z" fill="#96ACAF"/>
<path d="M31.9636 1.46549C31.543 1.72385 31.1719 2.38822 31.1719 2.88035C31.1719 3.38478 31.4935 4.02455 31.8646 4.27061C32.1739 4.46746 32.6193 4.49207 36.5409 4.55358L40.8707 4.6151L36.6275 8.90891C34.2894 11.2834 32.2729 13.3873 32.1492 13.5841C31.8523 14.0762 31.8523 14.8513 32.1615 15.3435C32.644 16.1432 32.4213 16.1186 40.1037 16.1186C46.7964 16.1186 47.081 16.1063 47.4645 15.8725C48.4665 15.2697 48.5036 13.8056 47.5511 13.0551C47.2294 12.809 47.1057 12.7967 42.4047 12.7967H37.58L41.8728 8.45369C44.2356 6.07918 46.2769 3.95073 46.4006 3.75388C46.8583 3.04029 46.5861 1.9207 45.8686 1.47779C45.4727 1.24403 45.2624 1.23173 38.9037 1.23173C32.7059 1.23173 32.3224 1.24403 31.9636 1.46549Z" fill="#96ACAF"/>
<path d="M67.6045 2.01916C67.2704 2.1668 64.6602 4.73816 58.0046 11.5049C55.8273 13.7072 55.5675 14.0148 55.4932 14.4823C55.419 14.8637 55.4561 15.1343 55.6417 15.5527C55.9386 16.217 56.4087 16.4877 57.2376 16.4877L57.8314 16.5L62.1983 12.1078L66.5529 7.71553V11.5172C66.5529 15.0728 66.5653 15.3435 66.8003 15.7126C67.2333 16.4262 68.2478 16.7092 69.0024 16.3155C69.188 16.217 70.0663 15.405 70.9694 14.4946C72.2683 13.1658 72.6147 12.7475 72.7261 12.3292C73.1467 10.779 71.6993 9.65943 70.2395 10.4099L69.8931 10.5945V6.86661C69.8931 3.38481 69.8807 3.11414 69.6457 2.74505C69.2003 2.00686 68.322 1.68698 67.6045 2.01916Z" fill="#96ACAF"/>
<path d="M26.1863 7.22331C26.0007 7.34634 25.741 7.66622 25.6049 7.94919C25.3822 8.40441 25.3575 8.71199 25.3575 11.6401C25.3575 13.4364 25.4193 15.0235 25.4812 15.2819C25.6172 15.774 26.1863 16.3154 26.6688 16.4384C27.1884 16.5737 27.8564 16.3646 28.2894 15.934L28.6976 15.528V11.7632V7.99841L28.2894 7.54319C27.9306 7.16179 27.7822 7.08797 27.2007 7.05106C26.7059 7.01415 26.4461 7.06337 26.1863 7.22331Z" fill="#96ACAF"/>
<path d="M50.8789 7.2602C50.1242 7.71542 50.0995 7.86306 50.0995 11.714C50.0995 15.6141 50.1366 15.8232 50.9778 16.2661C51.7943 16.6967 52.784 16.4138 53.217 15.6141C53.4149 15.245 53.4397 14.8513 53.4397 11.6893C53.4397 8.42901 53.4273 8.15834 53.1923 7.78924C52.7345 7.02644 51.6582 6.78038 50.8789 7.2602Z" fill="#96ACAF"/>
</svg>
