<svg width="91" height="20" viewBox="0 0 91 20" fill="none" xmlns="http://www.w3.org/2000/svg">
<path d="M63.5986 0.29962C62.9182 0.714852 62.6244 1.34539 62.6244 2.42192C62.6244 3.88292 63.3976 4.75952 64.6811 4.75952C66.0109 4.75952 66.7996 3.88292 66.7996 2.37578C66.7996 1.29925 66.4439 0.59182 65.7326 0.222724C65.0986 -0.100234 64.2017 -0.0694757 63.5986 0.29962Z" fill="#0FF1F6"/>
<path d="M30.1505 0.576345C29.934 0.714756 27.1505 3.48297 23.965 6.71256L18.1661 12.5873L18.0887 7.78908C18.0114 3.35994 17.996 2.96009 17.7021 2.54486C17.2073 1.79128 15.8929 1.45295 15.1042 1.8528C14.9187 1.94507 12.3826 4.42109 9.47542 7.35847L4.18681 12.6796V7.74295C4.17135 2.97547 4.15589 2.79092 3.84661 2.39107C2.76415 1.02234 0.614686 1.40681 0.150773 3.05236C-0.050256 3.80593 -0.050256 17.7239 0.150773 18.4775C0.320874 19.0926 1.03221 19.7693 1.63529 19.9231C1.83632 19.9692 2.26931 19.9692 2.59405 19.9231C3.10435 19.8308 3.80022 19.1695 8.53213 14.402L13.8981 8.98864L13.9135 13.7561C13.9135 18.1391 13.9444 18.5544 14.2073 19.0004C14.7486 19.8923 16.0321 20.2307 16.9599 19.7078C17.2228 19.5694 20.764 16.0783 24.8155 11.9414L32.2072 4.45185H33.3515C35.1298 4.45185 35.8721 3.83669 35.8721 2.37569C35.8721 1.54522 35.5473 0.914684 34.9442 0.545588C34.2948 0.176493 30.7072 0.191872 30.1505 0.576345Z" fill="#0FF1F6"/>
<path d="M39.9545 1.20686C39.4287 1.52981 38.9648 2.36028 38.9648 2.97544C38.9648 3.60598 39.3669 4.40568 39.8308 4.71326C40.2174 4.95932 40.7741 4.99008 45.6761 5.06698L51.0884 5.14387L45.7843 10.5111C42.8617 13.4793 40.3411 16.1091 40.1865 16.3551C39.8153 16.9703 39.8153 17.9392 40.2019 18.5543C40.805 19.554 40.5267 19.5232 50.1297 19.5232C58.4956 19.5232 58.8512 19.5078 59.3306 19.2156C60.5832 18.4621 60.6296 16.632 59.4388 15.6938C59.0368 15.3863 58.8822 15.3709 53.0059 15.3709H46.9751L52.341 9.94211C55.2946 6.97397 57.8461 4.31341 58.0007 4.06734C58.5729 3.17536 58.2327 1.77588 57.3358 1.22223C56.8409 0.930035 56.5781 0.914656 48.6297 0.914656C40.8823 0.914656 40.403 0.930035 39.9545 1.20686Z" fill="#0FF1F6"/>
<path d="M84.5056 1.89895C84.0881 2.0835 80.8252 5.2977 72.5057 13.7561C69.7841 16.509 69.4593 16.8934 69.3666 17.4778C69.2738 17.9546 69.3202 18.2929 69.5521 18.8158C69.9233 19.6463 70.5109 19.9846 71.5469 19.9846L72.2892 20L77.7479 14.5097L83.1912 9.01941V13.7715C83.1912 18.216 83.2066 18.5544 83.5004 19.0157C84.0417 19.9077 85.3097 20.2614 86.253 19.7693C86.4849 19.6463 87.5829 18.6313 88.7117 17.4932C90.3354 15.8323 90.7684 15.3094 90.9076 14.7865C91.4333 12.8488 89.6241 11.4493 87.7994 12.3874L87.3664 12.6181V7.95827C87.3664 3.60602 87.3509 3.26768 87.0571 2.80631C86.5004 1.88357 85.4025 1.48372 84.5056 1.89895Z" fill="#0FF1F6"/>
<path d="M32.7329 8.40419C32.5009 8.55799 32.1762 8.95784 32.0061 9.31155C31.7277 9.88058 31.6968 10.2651 31.6968 13.9252C31.6968 16.1706 31.7741 18.1545 31.8515 18.4774C32.0216 19.0926 32.7329 19.7693 33.336 19.923C33.9855 20.0922 34.8205 19.8308 35.3617 19.2925L35.872 18.785V14.079V9.37307L35.3617 8.80405C34.9133 8.3273 34.7277 8.23503 34.0009 8.18889C33.3824 8.14275 33.0576 8.20427 32.7329 8.40419Z" fill="#0FF1F6"/>
<path d="M63.5986 8.45038C62.6553 9.0194 62.6244 9.20395 62.6244 14.0176C62.6244 18.8927 62.6708 19.1541 63.7223 19.7078C64.7429 20.2461 65.98 19.8923 66.5212 18.8927C66.7687 18.4313 66.7996 17.9392 66.7996 13.9868C66.7996 9.91138 66.7841 9.57304 66.4903 9.11167C65.9182 8.15818 64.5728 7.8506 63.5986 8.45038Z" fill="#0FF1F6"/>
</svg>
