<svg width="37" height="29" viewBox="0 0 37 29" fill="none" xmlns="http://www.w3.org/2000/svg">
<path d="M8.1916 29C6.52814 29 5.0957 28.5841 3.89432 27.7524C2.78534 26.9206 1.9074 25.7655 1.2605 24.2868C0.706015 22.7158 0.428833 20.9599 0.428833 19.0192C0.428833 16.524 0.844673 14.075 1.6764 11.6723C2.60054 9.26951 3.94046 7.05156 5.69633 5.01845C7.4522 2.98533 9.67019 1.32188 12.3502 0.0280762L16.2316 3.49362C14.0136 4.23293 12.073 5.43431 10.4095 7.09777C8.74606 8.66881 7.45227 10.4247 6.52813 12.3654C5.6964 14.2137 5.32669 16.0157 5.41911 17.7716L5.83501 17.9102C6.11225 17.5406 6.48196 17.2633 6.94403 17.0785C7.4061 16.8013 8.09912 16.6626 9.02327 16.6626C9.855 16.6626 10.6868 16.8937 11.5185 17.3558C12.4427 17.8178 13.1357 18.5109 13.5978 19.4351C14.1523 20.2668 14.4296 21.3758 14.4296 22.762C14.4296 23.871 14.1523 24.9337 13.5978 25.9503C13.0433 26.8744 12.304 27.6137 11.3799 28.1682C10.4557 28.7227 9.39298 29 8.1916 29ZM28.4303 29C26.7669 29 25.3344 28.5841 24.133 27.7524C23.0241 26.9206 22.1461 25.7655 21.4992 24.2868C20.9447 22.7158 20.6675 20.9599 20.6675 19.0192C20.6675 16.524 21.0834 14.075 21.9151 11.6723C22.8393 9.26951 24.1793 7.05156 25.9352 5.01845C27.691 2.98533 29.9089 1.32188 32.5889 0.0280762L36.4703 3.49362C34.2524 4.23293 32.3117 5.43431 30.6482 7.09777C28.9848 8.66881 27.691 10.4247 26.7668 12.3654C25.9351 14.2137 25.5654 16.0157 25.6578 17.7716L26.0737 17.9102C26.351 17.5406 26.7207 17.2633 27.1827 17.0785C27.6448 16.8013 28.3378 16.6626 29.262 16.6626C30.0937 16.6626 30.9255 16.8937 31.7572 17.3558C32.6814 17.8178 33.3744 18.5109 33.8365 19.4351C34.391 20.2668 34.6683 21.3758 34.6683 22.762C34.6683 23.871 34.391 24.9337 33.8365 25.9503C33.282 26.8744 32.4966 27.6137 31.48 28.1682C30.5559 28.7227 29.5393 29 28.4303 29Z" fill="#14BCB2"/>
</svg>
