<svg width="64" height="64" viewBox="0 0 64 64" fill="none" xmlns="http://www.w3.org/2000/svg">
<path opacity="0.2" d="M38 32.0001C38 33.1867 37.6481 34.3468 36.9888 35.3335C36.3295 36.3202 35.3925 37.0892 34.2961 37.5433C33.1997 37.9975 31.9933 38.1163 30.8295 37.8848C29.6656 37.6533 28.5965 37.0818 27.7574 36.2427C26.9182 35.4036 26.3468 34.3345 26.1153 33.1706C25.8838 32.0067 26.0026 30.8003 26.4567 29.704C26.9109 28.6076 27.6799 27.6705 28.6666 27.0112C29.6533 26.352 30.8133 26.0001 32 26.0001C33.5913 26.0001 35.1174 26.6322 36.2426 27.7574C37.3679 28.8826 38 30.4088 38 32.0001Z" fill="#0FF1F6"/>
<path d="M50 38C48.2322 37.9991 46.5144 38.5866 45.1175 39.67L39.34 35.17C39.7762 34.1702 40.0009 33.0909 40 32C40 31.815 40 31.63 39.98 31.4475L43.2875 30.345C44.3339 31.9589 45.9267 33.1417 47.7742 33.6769C49.6216 34.212 51.6 34.0636 53.347 33.2589C55.094 32.4542 56.4926 31.0471 57.2866 29.2952C58.0806 27.5433 58.2168 25.564 57.6703 23.7199C57.1239 21.8757 55.9313 20.2902 54.3111 19.2537C52.6909 18.2172 50.7514 17.7992 48.8481 18.0761C46.9447 18.3531 45.2049 19.3065 43.9472 20.7617C42.6895 22.217 41.9983 24.0766 42 26C42 26.185 42 26.37 42.02 26.5525L38.7125 27.655C37.9875 26.5341 36.9934 25.6125 35.821 24.9741C34.6485 24.3357 33.335 24.0008 32 24C31.5586 24.0009 31.118 24.0377 30.6825 24.11L28.9725 20.25C30.4491 19.0703 31.4602 17.4058 31.8268 15.5517C32.1934 13.6976 31.8917 11.7736 30.9752 10.1207C30.0587 8.46783 28.5866 7.19277 26.8199 6.52156C25.0531 5.85035 23.1057 5.82633 21.3229 6.45376C19.5401 7.08119 18.037 8.31955 17.0801 9.94935C16.1231 11.5791 15.774 13.4951 16.0948 15.3577C16.4155 17.2203 17.3853 18.9091 18.8323 20.125C20.2793 21.3408 22.11 22.0051 24 22C24.4414 21.9991 24.882 21.9623 25.3175 21.89L27.0275 25.74C25.5774 26.8877 24.5709 28.5035 24.1801 30.311C23.7894 32.1186 24.0385 34.0058 24.885 35.65L18.4575 41.36C16.84 40.2696 14.8802 39.8065 12.9457 40.0575C11.0111 40.3086 9.23454 41.2566 7.94893 42.7238C6.66332 44.1911 5.95696 46.0768 5.96225 48.0276C5.96753 49.9784 6.6841 51.8603 7.97764 53.3205C9.27118 54.7808 11.0529 55.7191 12.9888 55.9597C14.9247 56.2003 16.8818 55.7266 18.4935 54.6273C20.1051 53.5281 21.2605 51.8789 21.7431 49.9887C22.2257 48.0986 22.0024 46.0973 21.115 44.36L27.5425 38.65C28.9342 39.5871 30.5858 40.0615 32.2627 40.0058C33.9395 39.9502 35.556 39.3673 36.8825 38.34L42.66 42.84C42.2252 43.8368 42.0005 44.9125 42 46C42 47.5823 42.4692 49.129 43.3483 50.4446C44.2273 51.7602 45.4767 52.7856 46.9385 53.3911C48.4004 53.9966 50.0089 54.155 51.5607 53.8463C53.1126 53.5376 54.538 52.7757 55.6569 51.6569C56.7757 50.5381 57.5376 49.1126 57.8463 47.5608C58.155 46.0089 57.9965 44.4004 57.391 42.9386C56.7855 41.4768 55.7602 40.2273 54.4446 39.3483C53.129 38.4692 51.5823 38 50 38ZM50 22C50.7911 22 51.5645 22.2346 52.2223 22.6742C52.8801 23.1137 53.3928 23.7384 53.6955 24.4693C53.9983 25.2002 54.0775 26.0045 53.9231 26.7804C53.7688 27.5563 53.3878 28.269 52.8284 28.8285C52.269 29.3879 51.5563 29.7688 50.7804 29.9232C50.0044 30.0775 49.2002 29.9983 48.4693 29.6956C47.7384 29.3928 47.1137 28.8801 46.6741 28.2223C46.2346 27.5645 46 26.7912 46 26C46 24.9392 46.4214 23.9218 47.1716 23.1716C47.9217 22.4215 48.9391 22 50 22ZM20 14C20 13.2089 20.2346 12.4355 20.6741 11.7778C21.1137 11.12 21.7384 10.6073 22.4693 10.3045C23.2002 10.0018 24.0044 9.92255 24.7804 10.0769C25.5563 10.2312 26.269 10.6122 26.8284 11.1716C27.3878 11.731 27.7688 12.4437 27.9231 13.2197C28.0775 13.9956 27.9983 14.7999 27.6955 15.5308C27.3928 16.2617 26.8801 16.8864 26.2223 17.3259C25.5645 17.7654 24.7911 18 24 18C22.9391 18 21.9217 17.5786 21.1716 16.8285C20.4214 16.0783 20 15.0609 20 14ZM14 52C13.2089 52 12.4355 51.7654 11.7777 51.3259C11.1199 50.8864 10.6072 50.2617 10.3045 49.5308C10.0017 48.7999 9.92253 47.9956 10.0769 47.2197C10.2312 46.4437 10.6122 45.731 11.1716 45.1716C11.731 44.6122 12.4437 44.2312 13.2196 44.0769C13.9956 43.9226 14.7998 44.0018 15.5307 44.3045C16.2616 44.6073 16.8864 45.12 17.3259 45.7778C17.7654 46.4355 18 47.2089 18 48C18 49.0609 17.5786 50.0783 16.8284 50.8285C16.0783 51.5786 15.0609 52 14 52ZM28 32C28 31.2089 28.2346 30.4355 28.6741 29.7778C29.1137 29.12 29.7384 28.6073 30.4693 28.3045C31.2002 28.0018 32.0044 27.9226 32.7804 28.0769C33.5563 28.2312 34.269 28.6122 34.8284 29.1716C35.3878 29.731 35.7688 30.4437 35.9231 31.2197C36.0775 31.9956 35.9983 32.7999 35.6955 33.5308C35.3928 34.2617 34.8801 34.8864 34.2223 35.3259C33.5645 35.7654 32.7911 36 32 36C30.9391 36 29.9217 35.5786 29.1716 34.8285C28.4214 34.0783 28 33.0609 28 32ZM50 50C49.2089 50 48.4355 49.7654 47.7777 49.3259C47.1199 48.8864 46.6072 48.2617 46.3045 47.5308C46.0017 46.7999 45.9225 45.9956 46.0769 45.2197C46.2312 44.4437 46.6122 43.731 47.1716 43.1716C47.731 42.6122 48.4437 42.2312 49.2196 42.0769C49.9956 41.9226 50.7998 42.0018 51.5307 42.3045C52.2616 42.6073 52.8864 43.12 53.3259 43.7778C53.7654 44.4355 54 45.2089 54 46C54 47.0609 53.5786 48.0783 52.8284 48.8285C52.0783 49.5786 51.0609 50 50 50Z" fill="#0FF1F6"/>
</svg>
